<svg version="1.1" id="Layer_1" xmlns="http://www.w3.org/2000/svg" xmlns:xlink="http://www.w3.org/1999/xlink" x="0px" y="0px"
	 width="100%" viewBox="0 0 215 228" enable-background="new 0 0 215 228" xml:space="preserve">
<path fill="#000000" opacity="1.000000" stroke="none" 
	d="
M216.000000,86.000000 
	C216.000000,134.000000 216.000000,181.500000 216.000000,229.000000 
	C144.333328,229.000000 72.666664,229.000000 1.000000,229.000000 
	C1.000000,153.000000 1.000000,77.000000 1.000000,1.000000 
	C72.666664,1.000000 144.333328,1.000000 216.000000,1.000000 
	C216.000000,29.166666 216.000000,57.333332 216.000000,86.000000 
M140.220703,33.243198 
	C139.704102,33.302586 139.187515,33.361973 138.103165,33.196312 
	C137.419678,32.775009 136.736176,32.353710 136.062653,31.234970 
	C129.846252,27.362473 123.695297,23.378046 117.375160,19.682981 
	C115.376213,18.514297 112.925186,18.118877 109.901939,17.263700 
	C107.091187,18.208700 104.280426,19.153702 100.894371,19.561426 
	C92.936569,24.057266 84.978775,28.553106 76.297935,33.099525 
	C61.684177,39.592697 47.159477,46.298218 32.415722,52.481419 
	C25.918655,55.206139 24.090622,57.791328 25.897865,65.759926 
	C26.082039,66.215553 26.266212,66.671181 26.199844,68.011177 
	C26.283974,72.634018 26.368101,77.256866 25.992678,82.486572 
	C25.941854,82.990646 25.891033,83.494713 25.377148,84.583382 
	C26.252104,87.388725 27.127060,90.194069 28.162077,93.647102 
	C28.172815,94.090477 28.183556,94.533844 27.614828,95.433403 
	C29.474344,102.964943 31.184244,110.538620 33.286011,118.001938 
	C33.903687,120.195297 35.632202,122.075821 37.239048,124.420822 
	C37.406727,124.416748 37.574409,124.412674 37.779949,125.047600 
	C38.295162,125.977425 38.810379,126.907249 38.894279,128.492218 
	C38.953426,129.011505 39.012573,129.530777 38.707195,130.163254 
	C38.888393,130.354828 39.069592,130.546402 39.415001,131.221313 
	C39.453903,131.386978 39.492805,131.552628 39.424637,132.228088 
	C39.713993,132.333267 40.003353,132.438446 40.581779,133.152206 
	C40.897541,133.984772 41.213306,134.817352 41.256081,136.380020 
	C42.038334,137.575348 42.820587,138.770676 43.684723,140.635498 
	C44.765831,142.080856 45.846939,143.526199 46.820179,145.190308 
	C46.820179,145.190308 46.642483,145.357391 46.255356,146.007416 
	C46.779404,146.709579 47.303452,147.411743 48.107151,148.768799 
	C56.547871,161.618011 64.193268,175.096466 73.695099,187.106155 
	C80.598228,195.831223 89.729279,202.882721 98.320679,210.143555 
	C102.328773,213.530884 107.681694,214.518051 112.946747,212.753067 
	C120.240501,210.307983 125.991821,205.715775 130.962280,199.101593 
	C133.780289,196.055466 136.598282,193.009338 139.970688,190.405014 
	C141.237289,189.390594 142.803040,188.593475 143.722946,187.327179 
	C150.767273,177.630219 157.939270,168.008682 164.524292,158.003479 
	C167.326141,153.746368 168.817841,148.626968 171.067139,143.216980 
	C172.063507,141.159164 173.059860,139.101349 174.704010,136.752808 
	C176.904388,132.392624 179.693909,128.224075 181.186935,123.633827 
	C184.687866,112.870415 188.587204,102.070930 190.392990,90.971680 
	C191.977280,81.233788 192.649567,71.133919 190.921021,61.059753 
	C190.231201,57.039486 188.602081,54.675922 185.206741,53.212616 
	C178.081406,50.141773 170.959427,47.050644 163.734406,44.228058 
	C158.896881,42.338188 153.884476,40.895996 148.575348,38.914997 
	C148.369583,38.652817 148.163834,38.390636 148.335587,38.056515 
	C148.335587,38.056515 148.082993,37.773300 148.082993,37.773300 
	C148.082993,37.773300 147.982635,38.140877 146.967758,37.946884 
	C146.644791,37.827248 146.321808,37.707607 146.391403,37.052929 
	C145.591675,36.790047 144.791962,36.527164 143.329529,35.969482 
	C142.669800,35.668438 142.010056,35.367397 141.507111,34.836449 
	C141.531982,34.606834 141.430862,34.472115 141.452698,34.150322 
	C141.290680,33.954620 141.128647,33.758919 140.220703,33.243198 
z"/>
<path fill="#F0F0C3" opacity="1.000000" stroke="none" 
	d="
M145.998840,37.587975 
	C146.321808,37.707607 146.644791,37.827248 147.484344,38.009624 
	C148.000916,38.072365 147.958069,38.128456 147.958069,38.128456 
	C148.163834,38.390636 148.369583,38.652817 148.674316,39.370659 
	C150.200378,40.642780 151.565628,41.601646 153.064590,42.252625 
	C162.908859,46.527870 172.855911,50.576756 182.594070,55.078800 
	C185.051331,56.214809 188.593063,58.642593 188.693787,60.626194 
	C189.205795,70.708549 190.016586,81.060944 188.300598,90.896179 
	C186.330795,102.186272 181.851746,113.042740 178.400803,124.068192 
	C177.038620,128.420227 175.509399,132.719971 174.056213,137.043518 
	C173.059860,139.101349 172.063507,141.159164 170.724548,143.764084 
	C169.628433,145.171692 168.768814,145.961136 168.137619,146.903580 
	C160.696945,158.013138 153.290436,169.145584 145.874969,180.272034 
	C143.722031,183.502396 141.569183,186.732834 139.416290,189.963226 
	C136.598282,193.009338 133.780289,196.055466 130.309082,199.141541 
	C127.025223,201.149338 124.295319,202.998795 121.781891,205.106430 
	C113.033615,212.442261 105.425285,212.438492 96.223518,205.683594 
	C79.719383,193.568146 67.949532,177.494476 57.336735,160.365982 
	C54.487629,155.767715 51.405636,151.313751 48.290775,146.510803 
	C47.648155,145.937851 47.145317,145.647614 46.642483,145.357391 
	C46.642483,145.357391 46.820179,145.190308 47.022274,144.780655 
	C46.286850,142.516907 45.349331,140.662796 44.307331,138.488617 
	C43.978500,137.534958 43.754150,136.901382 43.625015,135.914734 
	C42.255352,132.986801 40.790474,130.411942 39.325596,127.837074 
	C38.810379,126.907249 38.295162,125.977425 37.797066,124.457153 
	C37.622684,123.559410 37.431190,123.252121 37.187195,122.562531 
	C34.848053,115.343201 32.550072,108.509918 30.281284,101.666962 
	C29.546280,99.450089 28.887785,97.207855 28.194294,94.977219 
	C28.183556,94.533844 28.172815,94.090477 28.257202,92.935143 
	C28.231993,90.815742 28.111656,89.408302 28.209076,87.854248 
	C28.064411,87.083626 27.701992,86.459625 27.241764,85.538651 
	C27.090326,84.829185 27.036697,84.416687 27.194294,83.858475 
	C27.087755,83.101753 26.769993,82.490730 26.452230,81.879707 
	C26.368101,77.256866 26.283974,72.634018 26.589888,67.547951 
	C27.005192,66.393196 27.030453,65.701668 27.053202,64.692566 
	C27.114204,63.956860 27.177723,63.538731 27.590483,62.980648 
	C28.024467,61.392155 28.109211,59.943623 28.286774,58.134338 
	C31.428146,56.286354 34.476704,54.799114 37.841072,53.463093 
	C38.790844,53.109379 39.424801,52.604450 40.409492,51.984108 
	C45.036732,50.128479 49.313236,48.388260 53.919388,46.736755 
	C54.861042,46.288746 55.473053,45.752026 56.372055,45.086388 
	C57.268097,44.801956 57.877151,44.646439 58.823959,44.604774 
	C59.783798,44.166187 60.405884,43.613743 61.376869,42.932999 
	C66.806190,40.153976 71.886604,37.503262 77.327446,34.882431 
	C81.529297,32.787651 85.470459,30.822302 89.185684,28.496090 
	C93.386200,25.866022 97.383827,22.911909 101.469673,20.098705 
	C104.280426,19.153702 107.091187,18.208700 110.348465,17.651848 
	C115.674644,21.087358 120.459160,24.303719 125.467224,27.122950 
	C128.831909,29.017061 132.513092,30.348969 136.052673,31.932411 
	C136.736176,32.353710 137.419678,32.775009 138.405579,33.647827 
	C139.588776,34.421677 140.469559,34.744015 141.350327,35.066353 
	C142.010056,35.367397 142.669800,35.668438 143.625839,36.422668 
	C144.614380,37.113228 145.306610,37.350601 145.998840,37.587975 
M140.840088,177.064316 
	C141.105942,176.291443 141.371796,175.518555 142.016449,174.383514 
	C142.248734,173.917206 142.481018,173.450897 143.385254,172.767914 
	C146.976151,167.236786 150.567032,161.705643 154.034866,156.082077 
	C154.034866,156.082077 154.176636,156.141922 154.839401,156.055862 
	C155.144791,155.310471 155.450180,154.565079 156.022598,153.216888 
	C156.815750,151.909729 157.608902,150.602585 159.029785,149.070511 
	C159.505478,147.941040 159.981171,146.811569 160.775757,145.109879 
	C161.362488,144.190262 161.949219,143.270645 163.137222,142.104630 
	C163.595139,140.990662 164.053070,139.876678 164.758621,138.183197 
	C164.734406,137.775894 164.710175,137.368591 165.068954,136.667038 
	C165.068954,136.667038 165.295593,136.240570 165.960678,136.052383 
	C168.762177,129.889893 171.806747,123.823044 174.281570,117.532043 
	C175.992996,113.181625 176.917786,108.521751 178.322144,103.449959 
	C178.392334,103.079971 178.462540,102.709984 179.119156,101.954521 
	C179.642563,99.566658 180.165985,97.178787 180.761978,94.195419 
	C180.790054,93.796494 180.818115,93.397560 181.422760,92.490562 
	C182.116806,86.272049 183.091965,80.069420 183.444473,73.831612 
	C184.111877,62.022293 183.961960,62.017590 172.713974,57.701691 
	C172.102371,57.467014 171.563065,57.050323 170.962616,56.779224 
	C159.987305,51.823898 149.007751,46.877899 137.614487,41.401878 
	C131.799454,38.198254 125.984436,34.994625 119.861458,31.534748 
	C119.861458,31.534748 119.482536,31.404699 119.201942,30.806372 
	C117.146156,29.436365 114.929070,28.254021 113.069565,26.655664 
	C109.635849,23.704184 106.754326,24.750685 103.351326,26.921894 
	C96.957657,31.001242 90.248856,34.583290 83.734207,38.477707 
	C79.952354,40.738472 76.293335,43.204704 71.989433,45.892147 
	C69.736603,46.979034 67.483772,48.065922 64.572960,48.939735 
	C62.416279,49.756641 60.196674,50.439400 58.114799,51.415806 
	C52.053310,54.258659 46.046928,57.219013 39.412056,60.220226 
	C39.017555,60.325581 38.623055,60.430935 37.501442,60.297501 
	C36.056503,61.616226 33.337692,62.976002 33.378647,64.246841 
	C33.601730,71.169632 34.504539,78.070511 35.154022,85.746582 
	C35.237076,86.766045 35.320129,87.785507 35.080093,89.587730 
	C35.826138,92.212746 36.572186,94.837753 37.354393,97.982269 
	C37.426914,98.321411 37.499435,98.660561 37.248032,99.603363 
	C38.003895,101.864594 38.759762,104.125824 39.546803,106.929382 
	C39.622494,107.282822 39.698185,107.636253 39.457790,108.570091 
	C42.311104,116.041084 45.164417,123.512070 47.973267,131.735336 
	C50.238541,135.853470 52.503811,139.971603 54.960629,144.598404 
	C55.150021,144.906387 55.339413,145.214371 55.299805,146.200562 
	C55.905895,146.772476 56.511990,147.344391 57.477928,148.137222 
	C57.477928,148.137222 57.900116,148.130157 57.982113,148.069839 
	C57.982113,148.069839 57.880802,148.079712 57.733814,148.714050 
	C58.357410,149.516769 58.981003,150.319473 59.689766,151.813614 
	C60.551205,153.423416 61.412647,155.033203 62.113472,157.338943 
	C62.759529,157.883713 63.405586,158.428467 64.305717,159.214401 
	C64.305717,159.214401 64.371353,159.558487 64.178360,160.257645 
	C64.801811,160.830124 65.425262,161.402603 66.431839,162.433243 
	C67.128021,163.089722 67.824203,163.746216 68.406593,164.457062 
	C68.406593,164.457062 68.452904,164.574356 68.423996,165.222504 
	C68.925468,166.185471 69.426933,167.148438 69.884239,168.817566 
	C70.916740,169.881363 71.949249,170.945145 73.246506,172.237427 
	C73.246506,172.237427 73.346672,172.572495 73.213326,173.283035 
	C73.893234,173.771347 74.573143,174.259659 74.998627,174.953598 
	C74.998627,174.953598 75.262993,174.762360 75.137741,175.478210 
	C77.328506,178.037247 79.519272,180.596298 81.837303,183.172577 
	C81.837303,183.172577 81.827118,183.300598 81.823166,183.989716 
	C82.618866,184.588181 83.414574,185.186646 84.002609,186.000610 
	C84.002609,186.000610 84.213600,185.787766 84.144669,186.482483 
	C84.830742,186.922729 85.516815,187.362991 86.001831,188.000000 
	C86.001831,188.000000 86.198990,187.799576 86.111534,188.505920 
	C87.118980,189.307724 88.126427,190.109528 89.665314,191.313248 
	C94.093758,194.932114 98.522202,198.550980 103.096710,202.790573 
	C103.667870,202.981964 104.239037,203.173370 104.878189,203.681915 
	C104.878189,203.681915 105.014412,203.976273 105.133545,204.700333 
	C107.307678,206.369080 109.386711,207.194000 111.323006,203.808701 
	C111.323006,203.808701 111.702545,203.765869 112.452393,203.966461 
	C114.250755,202.589401 116.049118,201.212341 117.996300,199.999649 
	C117.996300,199.999649 117.841057,199.840927 118.548126,199.937439 
	C120.718117,198.136185 122.888100,196.334930 125.570320,194.120316 
	C125.988228,193.396561 126.406128,192.672791 127.369293,191.536285 
	C131.021790,187.209625 134.674271,182.882965 138.926010,178.475784 
	C139.337402,178.045074 139.748779,177.614365 140.840088,177.064316 
z"/>
<path fill="#727258" opacity="1.000000" stroke="none" 
	d="
M174.380127,136.898163 
	C175.509399,132.719971 177.038620,128.420227 178.400803,124.068192 
	C181.851746,113.042740 186.330795,102.186272 188.300598,90.896179 
	C190.016586,81.060944 189.205795,70.708549 188.693787,60.626194 
	C188.593063,58.642593 185.051331,56.214809 182.594070,55.078800 
	C172.855911,50.576756 162.908859,46.527870 153.064590,42.252625 
	C151.565628,41.601646 150.200378,40.642780 148.861801,39.539898 
	C153.884476,40.895996 158.896881,42.338188 163.734406,44.228058 
	C170.959427,47.050644 178.081406,50.141773 185.206741,53.212616 
	C188.602081,54.675922 190.231201,57.039486 190.921021,61.059753 
	C192.649567,71.133919 191.977280,81.233788 190.392990,90.971680 
	C188.587204,102.070930 184.687866,112.870415 181.186935,123.633827 
	C179.693909,128.224075 176.904388,132.392624 174.380127,136.898163 
z"/>
<path fill="#93937B" opacity="1.000000" stroke="none" 
	d="
M48.430557,146.793533 
	C51.405636,151.313751 54.487629,155.767715 57.336735,160.365982 
	C67.949532,177.494476 79.719383,193.568146 96.223518,205.683594 
	C105.425285,212.438492 113.033615,212.442261 121.781891,205.106430 
	C124.295319,202.998795 127.025223,201.149338 130.009186,199.286560 
	C125.991821,205.715775 120.240501,210.307983 112.946747,212.753067 
	C107.681694,214.518051 102.328773,213.530884 98.320679,210.143555 
	C89.729279,202.882721 80.598228,195.831223 73.695099,187.106155 
	C64.193268,175.096466 56.547871,161.618011 48.108398,148.106750 
	C48.216618,147.227661 48.323589,147.010590 48.430557,146.793533 
z"/>
<path fill="#626249" opacity="1.000000" stroke="none" 
	d="
M139.693481,190.184113 
	C141.569183,186.732834 143.722031,183.502396 145.874969,180.272034 
	C153.290436,169.145584 160.696945,158.013138 168.137619,146.903580 
	C168.768814,145.961136 169.628433,145.171692 170.643433,144.105316 
	C168.817841,148.626968 167.326141,153.746368 164.524292,158.003479 
	C157.939270,168.008682 150.767273,177.630219 143.722946,187.327179 
	C142.803040,188.593475 141.237289,189.390594 139.693481,190.184113 
z"/>
<path fill="#56564A" opacity="1.000000" stroke="none" 
	d="
M37.525261,53.311874 
	C34.476704,54.799114 31.428146,56.286354 28.012909,58.357555 
	C27.511232,60.334549 27.376236,61.727577 27.241241,63.120605 
	C27.177723,63.538731 27.114204,63.956860 26.757177,64.696533 
	C26.266403,65.012108 26.069141,65.006126 25.871878,65.000153 
	C24.090622,57.791328 25.918655,55.206139 32.415722,52.481419 
	C47.159477,46.298218 61.684177,39.592697 76.652924,33.374855 
	C76.994270,34.050968 76.980637,34.451756 76.967010,34.852539 
	C71.886604,37.503262 66.806190,40.153976 61.061653,42.902271 
	C59.760418,43.496872 59.123310,43.993893 58.486206,44.490913 
	C57.877151,44.646439 57.268097,44.801956 56.058388,45.048309 
	C54.835068,45.642109 54.212406,46.145073 53.589745,46.648041 
	C49.313236,48.388260 45.036732,50.128479 40.105934,51.930496 
	C38.809517,52.432156 38.167385,52.872017 37.525261,53.311874 
z"/>
<path fill="#56564A" opacity="1.000000" stroke="none" 
	d="
M27.904560,95.205307 
	C28.887785,97.207855 29.546280,99.450089 30.281284,101.666962 
	C32.550072,108.509918 34.848053,115.343201 37.069492,122.844315 
	C36.953396,123.705498 36.902504,123.902611 36.851616,124.099724 
	C35.632202,122.075821 33.903687,120.195297 33.286011,118.001938 
	C31.184244,110.538620 29.474344,102.964943 27.904560,95.205307 
z"/>
<path fill="#70705F" opacity="1.000000" stroke="none" 
	d="
M77.327446,34.882431 
	C76.980637,34.451756 76.994270,34.050968 77.014442,33.349564 
	C84.978775,28.553106 92.936569,24.057266 101.182022,19.830067 
	C97.383827,22.911909 93.386200,25.866022 89.185684,28.496090 
	C85.470459,30.822302 81.529297,32.787651 77.327446,34.882431 
z"/>
<path fill="#696A55" opacity="1.000000" stroke="none" 
	d="
M136.057663,31.583691 
	C132.513092,30.348969 128.831909,29.017061 125.467224,27.122950 
	C120.459160,24.303719 115.674644,21.087358 110.738022,17.704786 
	C112.925186,18.118877 115.376213,18.514297 117.375160,19.682981 
	C123.695297,23.378046 129.846252,27.362473 136.057663,31.583691 
z"/>
<path fill="#93937B" opacity="1.000000" stroke="none" 
	d="
M39.109940,128.164642 
	C40.790474,130.411942 42.255352,132.986801 43.360016,135.899078 
	C42.509560,136.040985 42.019318,135.845444 41.529072,135.649918 
	C41.213306,134.817352 40.897541,133.984772 40.376495,132.659729 
	C40.024380,131.923157 39.811211,131.773499 39.531704,131.718277 
	C39.492805,131.552628 39.453903,131.386978 39.353676,130.791016 
	C39.292347,130.360703 39.071720,130.050064 39.071720,130.050064 
	C39.012573,129.530777 38.953426,129.011505 39.109940,128.164642 
z"/>
<path fill="#56564A" opacity="1.000000" stroke="none" 
	d="
M27.991322,88.000862 
	C28.111656,89.408302 28.231993,90.815742 28.177174,92.611298 
	C27.127060,90.194069 26.252104,87.388725 25.894424,84.286530 
	C26.602156,83.994514 26.792612,83.999352 26.983067,84.004181 
	C27.036697,84.416687 27.090326,84.829185 27.128880,85.839844 
	C27.406307,86.958954 27.698814,87.479904 27.991322,88.000862 
z"/>
<path fill="#93937B" opacity="1.000000" stroke="none" 
	d="
M44.411812,138.808701 
	C45.349331,140.662796 46.286850,142.516907 47.076210,144.671280 
	C45.846939,143.526199 44.765831,142.080856 43.803757,140.125580 
	C44.007027,139.298935 44.170033,139.029953 44.411812,138.808701 
z"/>
<path fill="#45453A" opacity="1.000000" stroke="none" 
	d="
M44.307331,138.488617 
	C44.170033,139.029953 44.007027,139.298935 43.762817,139.790833 
	C42.820587,138.770676 42.038334,137.575348 41.392578,136.014969 
	C42.019318,135.845444 42.509560,136.040985 43.264801,136.252167 
	C43.754150,136.901382 43.978500,137.534958 44.307331,138.488617 
z"/>
<path fill="#727258" opacity="1.000000" stroke="none" 
	d="
M141.428711,34.951401 
	C140.469559,34.744015 139.588776,34.421677 138.689453,33.760345 
	C139.187515,33.361973 139.704102,33.302586 140.642487,33.622631 
	C141.064255,34.002064 141.203735,34.432293 141.203735,34.432293 
	C141.430862,34.472115 141.531982,34.606834 141.428711,34.951401 
z"/>
<path fill="#696A55" opacity="1.000000" stroke="none" 
	d="
M146.195129,37.320450 
	C145.306610,37.350601 144.614380,37.113228 143.957184,36.570068 
	C144.791962,36.527164 145.591675,36.790047 146.195129,37.320450 
z"/>
<path fill="#B5B497" opacity="1.000000" stroke="none" 
	d="
M25.884872,65.380035 
	C26.069141,65.006126 26.266403,65.012108 26.759691,65.014114 
	C27.030453,65.701668 27.005192,66.393196 26.715158,67.105766 
	C26.266212,66.671181 26.082039,66.215553 25.884872,65.380035 
z"/>
<path fill="#45453A" opacity="1.000000" stroke="none" 
	d="
M48.290775,146.510803 
	C48.323589,147.010590 48.216618,147.227661 47.968575,147.779312 
	C47.303452,147.411743 46.779404,146.709579 46.448921,145.682404 
	C47.145317,145.647614 47.648155,145.937851 48.290775,146.510803 
z"/>
<path fill="#B5B497" opacity="1.000000" stroke="none" 
	d="
M27.194292,83.858475 
	C26.792612,83.999352 26.602156,83.994514 26.125957,83.994232 
	C25.891033,83.494713 25.941854,82.990646 26.222454,82.183136 
	C26.769993,82.490730 27.087755,83.101753 27.194292,83.858475 
z"/>
<path fill="#BCBC9C" opacity="1.000000" stroke="none" 
	d="
M37.045334,124.260269 
	C36.902504,123.902611 36.953396,123.705498 37.121994,123.226608 
	C37.431190,123.252121 37.622684,123.559410 37.778137,124.137650 
	C37.574409,124.412674 37.406727,124.416748 37.045334,124.260269 
z"/>
<path fill="#45453A" opacity="1.000000" stroke="none" 
	d="
M38.889458,130.106659 
	C39.071720,130.050064 39.292347,130.360703 39.271568,130.549347 
	C39.069592,130.546402 38.888393,130.354828 38.889458,130.106659 
z"/>
<path fill="#696A55" opacity="1.000000" stroke="none" 
	d="
M148.146820,38.092484 
	C147.958069,38.128456 148.000916,38.072365 147.991776,38.106621 
	C147.982635,38.140877 148.082993,37.773300 148.082993,37.773300 
	C148.082993,37.773300 148.335587,38.056515 148.146820,38.092484 
z"/>
<path fill="#696A55" opacity="1.000000" stroke="none" 
	d="
M141.328217,34.291306 
	C141.203735,34.432293 141.064255,34.002064 141.015442,33.782639 
	C141.128647,33.758919 141.290680,33.954620 141.328217,34.291306 
z"/>
<path fill="#45453A" opacity="1.000000" stroke="none" 
	d="
M39.478172,131.973175 
	C39.811211,131.773499 40.024380,131.923157 40.231964,132.355438 
	C40.003353,132.438446 39.713993,132.333267 39.478172,131.973175 
z"/>
<path fill="#242423" opacity="1.000000" stroke="none" 
	d="
M37.571953,98.999702 
	C37.499435,98.660561 37.426914,98.321411 37.527824,97.332367 
	C36.935234,94.056625 36.169209,91.430801 35.403183,88.804970 
	C35.320129,87.785507 35.237076,86.766045 35.405914,85.048141 
	C35.494652,81.436470 35.356560,78.521561 35.162888,75.610367 
	C34.809731,70.301834 33.531479,64.814369 38.228554,60.536293 
	C38.623055,60.430935 39.017555,60.325581 39.950977,60.412727 
	C44.768845,59.242737 49.047787,57.880245 53.690056,56.711456 
	C54.775482,57.299492 55.497585,57.693817 55.993404,58.377892 
	C52.718639,59.862782 49.730457,61.253990 46.609596,62.213768 
	C39.279568,64.468033 39.253902,64.384552 39.227028,72.001457 
	C39.215286,75.328964 38.773624,78.723579 39.280365,81.970154 
	C40.368412,88.941093 41.720219,95.890892 43.399178,102.742729 
	C44.577641,107.552032 46.290535,112.257057 48.092606,116.880882 
	C51.080551,124.547440 54.332333,132.111176 57.472965,139.718216 
	C58.183731,139.992859 58.894497,140.267487 59.605263,140.542130 
	C71.545380,127.994591 83.506653,115.467018 95.388840,102.864861 
	C96.435631,101.754654 96.965240,100.156799 97.800217,98.826797 
	C97.865364,98.868156 97.782700,98.737846 98.130585,98.784683 
	C99.763023,97.854057 101.164986,96.997200 102.313080,95.879562 
	C109.811867,88.579681 117.255669,81.223305 125.120827,73.929214 
	C126.346809,74.984245 127.273064,75.929474 127.968277,77.021759 
	C129.075699,78.761673 129.609161,81.184547 131.132339,82.278320 
	C134.675522,84.822586 134.682602,88.307976 134.860840,91.947998 
	C134.926682,93.292679 135.281036,94.623245 135.598373,96.228104 
	C135.786087,96.660767 135.879227,96.825562 135.710709,97.158524 
	C134.381500,98.310692 133.313950,99.294693 131.894653,100.184830 
	C130.700302,100.571411 129.698181,100.892982 129.038422,101.555496 
	C111.807549,118.858002 94.592972,136.176926 77.445114,153.561600 
	C75.985825,155.041046 75.012070,156.999405 73.801674,158.765991 
	C73.790588,158.796677 73.726189,158.807327 73.371002,158.830231 
	C72.648758,159.901443 72.281700,160.949768 71.532913,162.015747 
	C70.274254,162.823181 69.397324,163.612946 68.520386,164.402695 
	C67.824203,163.746216 67.128021,163.089722 66.286400,161.880295 
	C65.551086,160.737732 64.961220,160.148102 64.371353,159.558487 
	C64.371353,159.558487 64.305717,159.214401 64.219284,158.763550 
	C63.513264,157.756149 62.893677,157.199570 62.274086,156.643005 
	C61.412647,155.033203 60.551205,153.423416 59.933723,151.316437 
	C59.412056,149.906067 58.646431,148.992889 57.880802,148.079712 
	C57.880802,148.079712 57.982113,148.069839 58.017036,147.721634 
	C57.073559,145.904709 56.095154,144.436005 55.042175,142.607605 
	C52.999569,138.478165 51.031540,134.708374 49.043674,130.550842 
	C48.296032,128.032715 47.701427,125.845032 46.814400,123.783165 
	C44.536781,118.488892 42.129391,113.250450 39.773872,107.989693 
	C39.698185,107.636253 39.622494,107.282822 39.684200,106.244911 
	C39.071716,103.373528 38.321835,101.186615 37.571953,98.999702 
z"/>
<path fill="#282826" opacity="1.000000" stroke="none" 
	d="
M135.503799,95.960236 
	C135.281036,94.623245 134.926682,93.292679 134.860840,91.947998 
	C134.682602,88.307976 134.675522,84.822586 131.132339,82.278320 
	C129.609161,81.184547 129.075699,78.761673 127.968277,77.021759 
	C127.273064,75.929474 126.346809,74.984245 125.296005,73.633713 
	C131.708939,66.417236 138.350067,59.540089 145.335205,52.306702 
	C133.742355,45.836021 122.748405,39.568428 111.587692,33.613396 
	C109.937660,32.732990 107.114578,32.562546 105.490807,33.375340 
	C97.862267,37.193878 90.575066,41.693420 82.952370,45.524807 
	C74.158279,49.944977 65.140396,53.919888 56.219688,58.088142 
	C55.497585,57.693817 54.775482,57.299492 53.993214,56.495491 
	C57.699013,53.774818 61.464977,51.463814 65.230942,49.152809 
	C67.483772,48.065922 69.736603,46.979034 72.665817,45.822929 
	C83.573776,40.198406 94.016197,34.987015 103.928085,28.910261 
	C107.638748,26.635338 110.157455,27.019768 113.400902,28.834290 
	C115.309959,29.902290 117.447670,30.561584 119.482536,31.404701 
	C119.482536,31.404699 119.861458,31.534748 120.008301,32.015816 
	C126.060173,36.063938 131.965195,39.630997 138.079681,43.471283 
	C149.424011,49.057072 160.186966,55.523922 171.825302,59.273857 
	C179.504517,61.748142 181.577591,65.767982 181.813324,72.494514 
	C181.840820,73.279282 181.364655,74.073090 181.338989,74.869705 
	C181.144272,80.911705 181.003677,86.955437 180.846191,92.998634 
	C180.818115,93.397560 180.790054,93.796494 180.369568,94.591965 
	C179.495682,97.439003 179.014206,99.889496 178.532715,102.339996 
	C178.462540,102.709984 178.392334,103.079971 177.985748,103.793221 
	C177.201965,104.476273 176.754578,104.816055 175.870972,105.108795 
	C174.281555,105.034828 173.128372,105.007896 171.903931,104.590057 
	C171.946304,103.147842 172.059937,102.096535 172.451263,101.025009 
	C172.997070,100.749237 173.265167,100.493683 173.774719,100.160690 
	C174.044418,99.389542 174.072693,98.695831 174.099457,97.644196 
	C173.978378,96.833115 173.858765,96.379944 173.851257,95.585388 
	C174.084381,94.537109 174.205414,93.830215 174.658691,93.013077 
	C175.376007,89.938560 175.761063,86.974289 176.148651,83.585770 
	C176.074219,81.766586 175.997253,80.371658 176.022430,78.572273 
	C176.052399,76.787804 175.980209,75.407776 176.065460,73.631775 
	C176.195084,71.819740 176.167267,70.403687 176.367828,68.747406 
	C176.946930,64.862656 176.617584,64.433136 173.616272,65.062378 
	C172.556885,64.872864 171.856827,64.710396 171.099533,64.254875 
	C169.625687,62.308033 168.311905,61.223053 167.715942,64.758255 
	C167.636383,64.967728 167.516998,65.399666 167.213989,65.448196 
	C166.453934,66.129776 165.996887,66.762825 165.499756,67.430222 
	C165.459671,67.464569 165.391144,67.544853 165.088135,67.585251 
	C164.323730,68.260612 163.862335,68.895584 163.122742,69.678787 
	C161.402512,71.352432 159.960495,72.877846 158.217148,74.457550 
	C157.456818,75.140251 156.997803,75.768661 156.499634,76.431396 
	C156.460480,76.465729 156.392212,76.544373 156.089264,76.584900 
	C155.322968,77.258949 154.859604,77.892456 154.128784,78.676674 
	C152.766205,80.037323 151.671112,81.247261 150.308960,82.469322 
	C149.883026,82.777016 149.724152,83.072586 149.512146,83.406143 
	C149.459030,83.444138 149.395660,83.558365 149.109116,83.588379 
	C148.394333,84.210480 147.966095,84.802574 147.499268,85.429459 
	C147.460663,85.464249 147.393112,85.543236 147.085724,85.584946 
	C146.177216,86.412277 145.576111,87.197899 144.697052,88.149498 
	C142.973755,89.883057 141.528427,91.450630 139.788010,93.025925 
	C139.176224,93.484718 138.859497,93.935806 138.500031,94.422806 
	C138.457275,94.458725 138.390991,94.548599 138.068314,94.601471 
	C136.998352,95.089645 136.251068,95.524940 135.503799,95.960236 
z"/>
<path fill="#282825" opacity="1.000000" stroke="none" 
	d="
M68.463493,164.429871 
	C69.397324,163.612946 70.274254,162.823181 71.714706,162.299835 
	C75.396820,166.622620 78.298782,170.872009 81.693665,174.682175 
	C85.235443,178.657227 89.252167,182.209091 93.306076,186.167709 
	C96.922409,189.209152 100.293922,192.028839 103.804489,195.172485 
	C107.317223,197.962891 110.514999,198.472061 113.541565,194.449097 
	C114.216148,193.862549 114.673035,193.480377 115.470879,193.124847 
	C117.287392,191.566513 118.762939,189.981567 120.501846,188.190048 
	C122.840157,185.984833 124.915108,183.986191 127.339630,181.965363 
	C129.597397,179.482849 131.505585,177.022552 133.461060,174.525421 
	C133.508362,174.488602 133.560806,174.380798 133.869019,174.325684 
	C134.431168,173.743759 134.685120,173.216965 135.104614,172.686432 
	C135.270157,172.682709 135.585220,172.784775 135.956726,172.836441 
	C137.280563,171.646561 138.232880,170.405014 139.508194,169.021271 
	C140.726685,167.011185 141.622208,165.143311 142.531876,162.980621 
	C142.745697,162.131607 142.945343,161.577408 143.449249,161.007904 
	C143.962463,160.479614 144.171417,159.966629 144.392395,159.426025 
	C144.404404,159.398407 144.448975,159.357895 144.701904,159.370361 
	C145.251556,159.223083 145.548309,159.063324 146.202423,158.879333 
	C147.000610,157.868393 147.441452,156.881683 147.925018,155.949966 
	C147.967758,156.004974 147.872543,155.896957 148.229370,155.854904 
	C148.919464,155.041672 149.252716,154.270493 149.626587,153.345398 
	C149.667206,153.191467 149.903748,152.978333 150.260925,152.917084 
	C150.998276,152.074463 151.378433,151.293106 151.776123,150.164856 
	C153.484726,146.868408 155.175781,143.918823 157.239960,140.904739 
	C157.937393,140.004333 158.261734,139.168442 158.554901,138.098328 
	C158.558655,137.537476 158.691238,137.257019 159.282074,136.945038 
	C159.997437,136.056213 160.352249,135.245117 160.695526,134.144653 
	C161.034927,133.194534 161.385864,132.533813 162.043610,131.889954 
	C162.533371,131.260529 162.716339,130.614197 162.898102,129.653534 
	C163.282898,128.653122 163.668884,127.967049 164.338043,127.481781 
	C165.546814,127.842018 166.472397,128.001465 167.350281,128.544647 
	C166.633606,131.365784 165.964600,133.803177 165.295593,136.240570 
	C165.295593,136.240570 165.068954,136.667038 164.526688,136.822281 
	C163.431396,137.811707 162.878357,138.645889 162.299622,139.848557 
	C162.361267,140.928375 162.448608,141.639709 162.535950,142.351044 
	C161.949219,143.270645 161.362488,144.190262 160.300201,145.502380 
	C159.350449,147.028397 158.876251,148.161911 158.402039,149.295425 
	C157.608902,150.602585 156.815750,151.909729 155.560913,153.569427 
	C154.791702,154.661957 154.484161,155.401932 154.176636,156.141922 
	C154.176636,156.141922 154.034866,156.082077 153.744446,156.108780 
	C150.671295,159.944962 147.789078,163.687363 145.153793,167.596237 
	C144.067062,169.208145 143.510834,171.177704 142.713318,172.984589 
	C142.481018,173.450897 142.248734,173.917206 141.541107,174.559143 
	C140.668289,175.134064 140.270798,175.533356 139.535919,176.042511 
	C138.907928,176.953674 138.617340,177.754990 138.326767,178.556305 
	C134.674271,182.882965 131.021790,187.209625 126.750694,191.736877 
	C125.452080,192.692581 124.772064,193.447708 123.845169,194.417313 
	C121.679207,196.368164 119.760132,198.104538 117.841049,199.840912 
	C117.841057,199.840927 117.996300,199.999649 117.572205,199.929169 
	C115.332916,201.161087 113.517723,202.463470 111.702545,203.765869 
	C111.702545,203.765869 111.323006,203.808701 110.748985,203.826141 
	C108.454781,203.887802 106.734596,203.932037 105.014412,203.976273 
	C105.014412,203.976273 104.878189,203.681915 104.874176,203.209106 
	C104.230324,202.547470 103.590485,202.358643 102.950653,202.169830 
	C98.522202,198.550980 94.093758,194.932114 89.401886,190.775604 
	C88.158630,189.425186 87.178810,188.612381 86.198990,187.799576 
	C86.198990,187.799576 86.001831,188.000000 86.093719,187.582275 
	C85.528267,186.705612 84.870934,186.246689 84.213600,185.787766 
	C84.213600,185.787766 84.002609,186.000610 84.053108,185.591003 
	C83.344780,184.554459 82.585945,183.927521 81.827118,183.300598 
	C81.827118,183.300598 81.837303,183.172577 81.793449,182.811005 
	C79.587395,179.887085 77.425194,177.324722 75.262993,174.762360 
	C75.262993,174.762360 74.998627,174.953598 75.126434,174.529282 
	C74.618378,173.594147 73.982521,173.083328 73.346664,172.572495 
	C73.346672,172.572495 73.246506,172.237427 73.165771,171.813690 
	C72.680344,170.665741 72.275642,169.941513 71.912140,168.824585 
	C70.786522,167.146042 69.619713,165.860199 68.452904,164.574356 
	C68.452904,164.574356 68.406593,164.457062 68.463493,164.429871 
z"/>
<path fill="#848474" opacity="1.000000" stroke="none" 
	d="
M181.134491,92.744598 
	C181.003677,86.955437 181.144272,80.911705 181.338989,74.869705 
	C181.364655,74.073090 181.840820,73.279282 181.813324,72.494514 
	C181.577591,65.767982 179.504517,61.748142 171.825302,59.273857 
	C160.186966,55.523922 149.424011,49.057072 138.125153,43.154716 
	C137.983810,42.353252 138.006470,42.141582 138.029114,41.929916 
	C149.007751,46.877899 159.987305,51.823898 170.962616,56.779224 
	C171.563065,57.050323 172.102371,57.467014 172.713974,57.701691 
	C183.961960,62.017590 184.111877,62.022293 183.444473,73.831612 
	C183.091965,80.069420 182.116806,86.272049 181.134491,92.744598 
z"/>
<path fill="#71715E" opacity="1.000000" stroke="none" 
	d="
M119.342239,31.105537 
	C117.447670,30.561584 115.309959,29.902290 113.400902,28.834290 
	C110.157455,27.019768 107.638748,26.635338 103.928085,28.910261 
	C94.016197,34.987015 83.573776,40.198406 72.960625,45.666092 
	C76.293335,43.204704 79.952354,40.738472 83.734207,38.477707 
	C90.248856,34.583290 96.957657,31.001242 103.351326,26.921894 
	C106.754326,24.750685 109.635849,23.704184 113.069565,26.655664 
	C114.929070,28.254021 117.146156,29.436365 119.342239,31.105537 
z"/>
<path fill="#848474" opacity="1.000000" stroke="none" 
	d="
M165.628143,136.146484 
	C165.964600,133.803177 166.633606,131.365784 167.671631,128.408447 
	C169.890808,122.616692 171.740936,117.344879 173.869308,112.032776 
	C174.466385,111.360420 174.785202,110.728371 175.050079,110.052628 
	C174.996155,110.008942 175.098999,110.106590 175.337326,109.823318 
	C175.819504,108.078651 176.063354,106.617249 176.307205,105.155838 
	C176.754578,104.816055 177.201965,104.476273 177.921722,104.068321 
	C176.917786,108.521751 175.992996,113.181625 174.281570,117.532043 
	C171.806747,123.823044 168.762177,129.889893 165.628143,136.146484 
z"/>
<path fill="#767660" opacity="1.000000" stroke="none" 
	d="
M64.901947,49.046272 
	C61.464977,51.463814 57.699013,53.774818 53.629890,56.301788 
	C49.047787,57.880245 44.768845,59.242737 40.254417,60.369263 
	C46.046928,57.219013 52.053310,54.258659 58.114799,51.415806 
	C60.196674,50.439400 62.416279,49.756641 64.901947,49.046272 
z"/>
<path fill="#767660" opacity="1.000000" stroke="none" 
	d="
M37.864998,60.416901 
	C33.531479,64.814369 34.809731,70.301834 35.162888,75.610367 
	C35.356560,78.521561 35.494652,81.436470 35.415649,84.664314 
	C34.504539,78.070511 33.601730,71.169632 33.378647,64.246841 
	C33.337692,62.976002 36.056503,61.616226 37.864998,60.416901 
z"/>
<path fill="#767660" opacity="1.000000" stroke="none" 
	d="
M39.615833,108.279892 
	C42.129391,113.250450 44.536781,118.488892 46.814400,123.783165 
	C47.701427,125.845032 48.296032,128.032715 48.783112,130.583069 
	C48.367496,130.996368 48.192616,130.989716 48.017731,130.983063 
	C45.164417,123.512070 42.311104,116.041084 39.615833,108.279892 
z"/>
<path fill="#848474" opacity="1.000000" stroke="none" 
	d="
M143.049286,172.876251 
	C143.510834,171.177704 144.067062,169.208145 145.153793,167.596237 
	C147.789078,163.687363 150.671295,159.944962 153.805969,156.154999 
	C150.567032,161.705643 146.976151,167.236786 143.049286,172.876251 
z"/>
<path fill="#71715E" opacity="1.000000" stroke="none" 
	d="
M137.821808,41.665897 
	C138.006470,42.141582 137.983810,42.353252 137.915680,42.881489 
	C131.965195,39.630997 126.060173,36.063938 120.162277,32.143936 
	C125.984436,34.994625 131.799454,38.198254 137.821808,41.665897 
z"/>
<path fill="#B5B594" opacity="1.000000" stroke="none" 
	d="
M47.995499,131.359192 
	C48.192616,130.989716 48.367496,130.996368 48.802948,130.970825 
	C51.031540,134.708374 52.999569,138.478165 54.953499,142.887695 
	C54.882626,143.714859 54.825855,143.902298 54.769081,144.089737 
	C52.503811,139.971603 50.238541,135.853470 47.995499,131.359192 
z"/>
<path fill="#B5B594" opacity="1.000000" stroke="none" 
	d="
M75.200363,175.120285 
	C77.425194,177.324722 79.587395,179.887085 81.729813,182.802399 
	C79.519272,180.596298 77.328506,178.037247 75.200363,175.120285 
z"/>
<path fill="#767660" opacity="1.000000" stroke="none" 
	d="
M37.409992,99.301529 
	C38.321835,101.186615 39.071716,103.373528 39.668613,105.973747 
	C38.759762,104.125824 38.003895,101.864594 37.409992,99.301529 
z"/>
<path fill="#767660" opacity="1.000000" stroke="none" 
	d="
M35.241638,89.196350 
	C36.169209,91.430801 36.935234,94.056625 37.509743,97.072617 
	C36.572186,94.837753 35.826138,92.212746 35.241638,89.196350 
z"/>
<path fill="#B5B594" opacity="1.000000" stroke="none" 
	d="
M118.194588,199.889175 
	C119.760132,198.104538 121.679207,196.368164 124.089386,194.491745 
	C124.739693,194.412354 124.898888,194.473022 125.058090,194.533691 
	C122.888100,196.334930 120.718117,198.136185 118.194588,199.889175 
z"/>
<path fill="#848474" opacity="1.000000" stroke="none" 
	d="
M178.825928,102.147263 
	C179.014206,99.889496 179.495682,97.439003 180.333282,94.889717 
	C180.165985,97.178787 179.642563,99.566658 178.825928,102.147263 
z"/>
<path fill="#B5B594" opacity="1.000000" stroke="none" 
	d="
M112.077469,203.866150 
	C113.517723,202.463470 115.332916,201.161087 117.497787,199.846985 
	C116.049118,201.212341 114.250755,202.589401 112.077469,203.866150 
z"/>
<path fill="#B5B594" opacity="1.000000" stroke="none" 
	d="
M105.073975,204.338303 
	C106.734596,203.932037 108.454781,203.887802 110.595985,203.940414 
	C109.386711,207.194000 107.307678,206.369080 105.073975,204.338303 
z"/>
<path fill="#454539" opacity="1.000000" stroke="none" 
	d="
M68.438446,164.898438 
	C69.619713,165.860199 70.786522,167.146042 71.656219,168.691086 
	C70.882195,168.670670 70.405296,168.391037 69.928398,168.111404 
	C69.426933,167.148438 68.925468,166.185471 68.438446,164.898438 
z"/>
<path fill="#454539" opacity="1.000000" stroke="none" 
	d="
M54.864853,144.344070 
	C54.825855,143.902298 54.882626,143.714859 55.028076,143.247360 
	C56.095154,144.436005 57.073559,145.904709 57.976040,147.751801 
	C57.900116,148.130157 57.477928,148.137222 57.312889,147.714447 
	C56.608170,146.701889 56.068489,146.112122 55.528809,145.522354 
	C55.339413,145.214371 55.150021,144.906387 54.864853,144.344070 
z"/>
<path fill="#B5B594" opacity="1.000000" stroke="none" 
	d="
M69.906319,168.464478 
	C70.405296,168.391037 70.882195,168.670670 71.615021,169.083801 
	C72.275642,169.941513 72.680344,170.665741 73.033401,171.699448 
	C71.949249,170.945145 70.916740,169.881363 69.906319,168.464478 
z"/>
<path fill="#B5B497" opacity="1.000000" stroke="none" 
	d="
M27.590483,62.980648 
	C27.376236,61.727577 27.511232,60.334549 27.920092,58.718304 
	C28.109211,59.943623 28.024467,61.392155 27.590483,62.980648 
z"/>
<path fill="#848474" opacity="1.000000" stroke="none" 
	d="
M162.836578,142.227844 
	C162.448608,141.639709 162.361267,140.928375 162.563141,139.727463 
	C163.405243,139.079498 163.958130,138.921112 164.511002,138.762711 
	C164.053070,139.876678 163.595139,140.990662 162.836578,142.227844 
z"/>
<path fill="#454539" opacity="1.000000" stroke="none" 
	d="
M57.807308,148.396881 
	C58.646431,148.992889 59.412056,149.906067 59.891144,150.970718 
	C58.981003,150.319473 58.357410,149.516769 57.807308,148.396881 
z"/>
<path fill="#848474" opacity="1.000000" stroke="none" 
	d="
M158.715912,149.182968 
	C158.876251,148.161911 159.350449,147.028397 160.140747,145.788483 
	C159.981171,146.811569 159.505478,147.941040 158.715912,149.182968 
z"/>
<path fill="#B5B594" opacity="1.000000" stroke="none" 
	d="
M86.155258,188.152740 
	C87.178810,188.612381 88.158630,189.425186 89.136162,190.574646 
	C88.126427,190.109528 87.118980,189.307724 86.155258,188.152740 
z"/>
<path fill="#3D3D33" opacity="1.000000" stroke="none" 
	d="
M164.634811,138.472961 
	C163.958130,138.921112 163.405243,139.079498 162.588837,139.358978 
	C162.878357,138.645889 163.431396,137.811707 164.335190,136.969406 
	C164.710175,137.368591 164.734406,137.775894 164.634811,138.472961 
z"/>
<path fill="#4A4B43" opacity="1.000000" stroke="none" 
	d="
M125.314201,194.326996 
	C124.898888,194.473022 124.739693,194.412354 124.336273,194.277267 
	C124.772064,193.447708 125.452080,192.692581 126.478058,191.943237 
	C126.406128,192.672791 125.988228,193.396561 125.314201,194.326996 
z"/>
<path fill="#B5B594" opacity="1.000000" stroke="none" 
	d="
M81.825142,183.645157 
	C82.585945,183.927521 83.344780,184.554459 84.156937,185.483246 
	C83.414574,185.186646 82.618866,184.588181 81.825142,183.645157 
z"/>
<path fill="#4A4B43" opacity="1.000000" stroke="none" 
	d="
M138.626389,178.516052 
	C138.617340,177.754990 138.907928,176.953674 139.588623,176.359726 
	C140.039215,176.772629 140.099701,176.978149 140.160172,177.183655 
	C139.748779,177.614365 139.337402,178.045074 138.626389,178.516052 
z"/>
<path fill="#B5B497" opacity="1.000000" stroke="none" 
	d="
M28.209076,87.854248 
	C27.698814,87.479904 27.406307,86.958954 27.226688,86.136810 
	C27.701992,86.459625 28.064411,87.083626 28.209076,87.854248 
z"/>
<path fill="#B5B594" opacity="1.000000" stroke="none" 
	d="
M73.279999,172.927765 
	C73.982521,173.083328 74.618378,173.594147 75.253647,174.426468 
	C74.573143,174.259659 73.893234,173.771347 73.279999,172.927765 
z"/>
<path fill="#B5B497" opacity="1.000000" stroke="none" 
	d="
M37.841072,53.463089 
	C38.167385,52.872017 38.809517,52.432156 39.755203,52.045906 
	C39.424801,52.604450 38.790844,53.109379 37.841072,53.463089 
z"/>
<path fill="#848474" opacity="1.000000" stroke="none" 
	d="
M140.500122,177.123993 
	C140.099701,176.978149 140.039215,176.772629 139.926025,176.249878 
	C140.270798,175.533356 140.668289,175.134064 141.351715,174.740219 
	C141.371796,175.518555 141.105942,176.291443 140.500122,177.123993 
z"/>
<path fill="#B5B594" opacity="1.000000" stroke="none" 
	d="
M64.274857,159.908066 
	C64.961220,160.148102 65.551086,160.737732 66.094833,161.651215 
	C65.425262,161.402603 64.801811,160.830124 64.274857,159.908066 
z"/>
<path fill="#B5B594" opacity="1.000000" stroke="none" 
	d="
M84.179138,186.135132 
	C84.870934,186.246689 85.528267,186.705612 86.194244,187.483887 
	C85.516815,187.362991 84.830742,186.922729 84.179138,186.135132 
z"/>
<path fill="#C2C2A0" opacity="1.000000" stroke="none" 
	d="
M53.919388,46.736755 
	C54.212406,46.145073 54.835068,45.642109 55.771400,45.177223 
	C55.473053,45.752026 54.861042,46.288746 53.919388,46.736755 
z"/>
<path fill="#C2C2A0" opacity="1.000000" stroke="none" 
	d="
M58.823959,44.604774 
	C59.123310,43.993893 59.760418,43.496872 60.712746,43.030571 
	C60.405884,43.613743 59.783798,44.166187 58.823959,44.604774 
z"/>
<path fill="#4D4D3E" opacity="1.000000" stroke="none" 
	d="
M103.023682,202.480194 
	C103.590485,202.358643 104.230324,202.547470 104.840179,203.050522 
	C104.239037,203.173370 103.667870,202.981964 103.023682,202.480194 
z"/>
<path fill="#B5B594" opacity="1.000000" stroke="none" 
	d="
M55.414307,145.861450 
	C56.068489,146.112122 56.608170,146.701889 57.132965,147.603973 
	C56.511990,147.344391 55.905895,146.772476 55.414307,145.861450 
z"/>
<path fill="#848474" opacity="1.000000" stroke="none" 
	d="
M154.508026,156.098892 
	C154.484161,155.401932 154.791702,154.661957 155.427399,153.870819 
	C155.450180,154.565079 155.144791,155.310471 154.508026,156.098892 
z"/>
<path fill="#B5B594" opacity="1.000000" stroke="none" 
	d="
M62.193779,156.990967 
	C62.893677,157.199570 63.513264,157.756149 64.092247,158.642975 
	C63.405586,158.428467 62.759529,157.883713 62.193779,156.990967 
z"/>
<path fill="#FCFCCB" opacity="1.000000" stroke="none" 
	d="
M143.145004,161.023193 
	C142.945343,161.577408 142.745697,162.131607 142.225220,163.036774 
	C141.347321,163.997162 140.790237,164.606583 139.883911,165.231903 
	C138.658356,166.792236 137.782074,168.336685 136.708221,170.141418 
	C136.202179,171.196075 135.893692,171.990417 135.585220,172.784775 
	C135.585220,172.784775 135.270157,172.682709 134.898315,172.494781 
	C134.204590,172.998154 133.882706,173.689484 133.560806,174.380798 
	C133.560806,174.380798 133.508362,174.488602 133.123383,174.421814 
	C130.822296,176.899185 128.906174,179.443375 126.990059,181.987549 
	C124.915108,183.986191 122.840157,185.984833 120.166092,188.113464 
	C118.087959,189.861679 116.608940,191.479950 115.129921,193.098221 
	C114.673035,193.480377 114.216148,193.862549 113.142227,194.354279 
	C109.571945,194.592056 106.618683,194.720306 103.665436,194.848541 
	C100.293922,192.028839 96.922409,189.209152 93.282402,185.824524 
	C87.801949,178.876953 82.476562,172.581894 77.443184,166.061401 
	C75.810951,163.946915 74.943474,161.242111 73.726189,158.807327 
	C73.726189,158.807327 73.790588,158.796677 74.140190,158.806854 
	C90.597450,142.793213 106.735077,126.799309 122.788139,110.720978 
	C126.102432,107.401497 129.101852,103.767639 132.246399,100.278679 
	C133.313950,99.294693 134.381500,98.310692 136.084290,97.183792 
	C137.276688,96.210121 137.833847,95.379356 138.390991,94.548599 
	C138.390991,94.548599 138.457275,94.458725 138.776581,94.560120 
	C139.424942,94.113747 139.754013,93.565979 140.083084,93.018211 
	C141.528427,91.450630 142.973755,89.883057 145.070312,88.176178 
	C146.278732,87.205666 146.835922,86.374451 147.393112,85.543236 
	C147.393112,85.543236 147.460663,85.464249 147.854523,85.544754 
	C148.630798,84.936287 149.013229,84.247330 149.395660,83.558365 
	C149.395660,83.558365 149.459030,83.444138 149.803131,83.438858 
	C150.290176,83.108116 150.433105,82.782661 150.576019,82.457199 
	C151.671112,81.247261 152.766205,80.037323 154.505264,78.767776 
	C155.563553,77.986908 155.977890,77.265640 156.392212,76.544373 
	C156.392212,76.544373 156.460480,76.465729 156.869995,76.540649 
	C157.692505,75.878136 158.105484,75.140694 158.518463,74.403252 
	C159.960495,72.877846 161.402512,71.352432 163.498810,69.771683 
	C164.565796,68.992523 164.978470,68.268692 165.391144,67.544853 
	C165.391144,67.544853 165.459671,67.464569 165.870117,67.538818 
	C166.692703,66.875267 167.104843,66.137459 167.516998,65.399658 
	C167.516998,65.399666 167.636383,64.967728 168.134186,64.866104 
	C169.473572,64.692291 170.315170,64.620110 171.156769,64.547920 
	C171.856827,64.710396 172.556885,64.872864 173.527649,65.280685 
	C173.798370,65.526031 173.818405,65.996826 173.604202,66.277527 
	C174.229340,69.048073 175.068680,71.537918 175.908020,74.027756 
	C175.980209,75.407776 176.052399,76.787804 175.663086,78.653152 
	C174.818909,82.424889 174.436264,85.711296 174.050110,89.417366 
	C174.139893,90.932457 174.233170,92.027885 174.326431,93.123322 
	C174.205414,93.830215 174.084381,94.537109 173.529938,95.660019 
	C172.788864,97.732437 172.481216,99.388832 172.173569,101.045227 
	C172.059937,102.096535 171.946304,103.147842 171.704681,104.583664 
	C171.576706,104.968170 171.212158,105.129570 170.827179,105.161079 
	C170.148590,106.292389 169.854965,107.392181 169.550262,108.720276 
	C169.549271,109.551643 169.559341,110.154716 169.368317,110.988373 
	C169.163086,111.817192 169.158966,112.415428 169.011658,113.319336 
	C168.645935,114.411476 168.423386,115.197922 167.856171,116.077202 
	C164.535019,122.597214 161.558517,129.024399 158.488556,135.722748 
	C158.217194,136.331802 158.039276,136.669724 157.519226,137.032028 
	C153.425934,143.671265 149.674759,150.286087 145.929169,156.923630 
	C145.934769,156.946335 145.899643,156.922638 145.558533,156.973801 
	C144.961258,157.802612 144.705124,158.580246 144.448975,159.357895 
	C144.448975,159.357895 144.404404,159.398407 144.105591,159.314316 
	C143.586197,159.827881 143.365601,160.425537 143.145004,161.023193 
z"/>
<path fill="#73735F" opacity="1.000000" stroke="none" 
	d="
M55.993404,58.377892 
	C65.140396,53.919888 74.158279,49.944977 82.952370,45.524807 
	C90.575066,41.693420 97.862267,37.193878 105.490807,33.375340 
	C107.114578,32.562546 109.937660,32.732990 111.587692,33.613396 
	C122.748405,39.568428 133.742355,45.836021 145.335205,52.306702 
	C138.350067,59.540089 131.708939,66.417236 124.892624,73.589890 
	C117.255669,81.223305 109.811867,88.579681 102.313080,95.879562 
	C101.164986,96.997200 99.763023,97.854057 98.136475,98.437683 
	C101.111160,94.549782 104.316650,90.941582 107.764793,87.582458 
	C119.427528,76.220833 131.176254,64.947487 143.189728,53.353165 
	C131.480438,46.730057 121.170639,40.799908 110.723526,35.122433 
	C109.507744,34.461708 107.226616,34.655560 105.954300,35.370083 
	C86.127220,46.504753 66.523552,58.060837 44.819183,65.398636 
	C43.612694,65.806526 42.104748,67.692421 42.099663,68.896141 
	C42.068806,76.205658 41.737194,83.620674 42.808552,90.806259 
	C45.173244,106.666222 51.220757,121.365578 58.998688,136.221313 
	C65.444237,129.847427 71.618568,123.628677 77.920052,117.541557 
	C84.460953,111.223160 91.124916,105.032150 97.735062,98.785431 
	C96.965240,100.156799 96.435631,101.754654 95.388840,102.864861 
	C83.506653,115.467018 71.545380,127.994591 59.605263,140.542130 
	C58.894497,140.267487 58.183731,139.992859 57.472965,139.718216 
	C54.332333,132.111176 51.080551,124.547440 48.092606,116.880882 
	C46.290535,112.257057 44.577641,107.552032 43.399178,102.742729 
	C41.720219,95.890892 40.368412,88.941093 39.280365,81.970154 
	C38.773624,78.723579 39.215286,75.328964 39.227028,72.001457 
	C39.253902,64.384552 39.279568,64.468033 46.609596,62.213768 
	C49.730457,61.253990 52.718639,59.862782 55.993404,58.377892 
z"/>
<path fill="#838370" opacity="1.000000" stroke="none" 
	d="
M131.894653,100.184822 
	C129.101852,103.767639 126.102432,107.401497 122.788139,110.720978 
	C106.735077,126.799309 90.597450,142.793213 74.151276,158.776154 
	C75.012070,156.999405 75.985825,155.041046 77.445114,153.561600 
	C94.592972,136.176926 111.807549,118.858002 129.038422,101.555496 
	C129.698181,100.892982 130.700302,100.571411 131.894653,100.184822 
z"/>
<path fill="#838370" opacity="1.000000" stroke="none" 
	d="
M73.371002,158.830231 
	C74.943474,161.242111 75.810951,163.946915 77.443184,166.061401 
	C82.476562,172.581894 87.801949,178.876953 93.037575,185.602783 
	C89.252167,182.209091 85.235443,178.657227 81.693665,174.682175 
	C78.298782,170.872009 75.396820,166.622620 72.096436,162.282181 
	C72.281700,160.949768 72.648758,159.901443 73.371002,158.830231 
z"/>
<path fill="#C9C9A5" opacity="1.000000" stroke="none" 
	d="
M138.068314,94.601471 
	C137.833847,95.379356 137.276688,96.210121 136.345947,97.015617 
	C135.879227,96.825562 135.786087,96.660767 135.598373,96.228104 
	C136.251068,95.524940 136.998352,95.089645 138.068314,94.601471 
z"/>
<path fill="#37382F" opacity="1.000000" stroke="none" 
	d="
M169.154831,113.013657 
	C169.158966,112.415428 169.163086,111.817192 169.678833,110.978096 
	C170.489349,109.825905 170.788239,108.914589 171.129333,107.641396 
	C171.185059,106.562874 171.198608,105.846222 171.212158,105.129570 
	C171.212158,105.129570 171.576706,104.968170 171.775955,104.974564 
	C173.128372,105.007896 174.281555,105.034828 175.870972,105.108803 
	C176.063354,106.617249 175.819504,108.078651 175.280090,109.577469 
	C174.684952,109.335609 174.385391,109.056335 174.085846,108.777061 
	C173.978561,108.893280 173.871292,109.009499 173.764008,109.125717 
	C174.210678,109.449249 174.657349,109.772781 175.104019,110.096321 
	C174.785202,110.728371 174.466385,111.360420 173.482071,112.038849 
	C171.595993,112.394699 170.375412,112.704178 169.154831,113.013657 
z"/>
<path fill="#C9C9A5" opacity="1.000000" stroke="none" 
	d="
M174.053619,88.997711 
	C174.436264,85.711296 174.818909,82.424889 175.560913,79.057602 
	C175.997253,80.371658 176.074219,81.766586 175.886383,83.815628 
	C175.098907,85.979065 174.576263,87.488388 174.053619,88.997711 
z"/>
<path fill="#696956" opacity="1.000000" stroke="none" 
	d="
M174.050110,89.417366 
	C174.576263,87.488388 175.098907,85.979065 175.883820,84.239883 
	C175.761063,86.974289 175.376007,89.938560 174.658691,93.013077 
	C174.233170,92.027885 174.139893,90.932457 174.050110,89.417366 
z"/>
<path fill="#C9C9A5" opacity="1.000000" stroke="none" 
	d="
M176.065460,73.631775 
	C175.068680,71.537918 174.229340,69.048073 173.915100,66.402092 
	C175.006607,67.159836 175.573029,68.073730 176.139450,68.987625 
	C176.167267,70.403687 176.195084,71.819740 176.065460,73.631775 
z"/>
<path fill="#696956" opacity="1.000000" stroke="none" 
	d="
M176.367828,68.747406 
	C175.573029,68.073730 175.006607,67.159836 174.129303,66.121384 
	C173.818405,65.996826 173.798370,65.526031 173.886978,65.307724 
	C176.617584,64.433136 176.946930,64.862656 176.367828,68.747406 
z"/>
<path fill="#C9C9A5" opacity="1.000000" stroke="none" 
	d="
M172.451263,101.025009 
	C172.481216,99.388832 172.788864,97.732437 173.417847,96.001404 
	C173.858765,96.379944 173.978378,96.833115 173.852005,97.850632 
	C173.581772,99.022690 173.557526,99.630417 173.533279,100.238129 
	C173.265167,100.493683 172.997070,100.749237 172.451263,101.025009 
z"/>
<path fill="#696956" opacity="1.000000" stroke="none" 
	d="
M171.099533,64.254875 
	C170.315170,64.620110 169.473572,64.692291 168.213745,64.656631 
	C168.311905,61.223053 169.625687,62.308033 171.099533,64.254875 
z"/>
<path fill="#C9C9A5" opacity="1.000000" stroke="none" 
	d="
M147.085724,85.584946 
	C146.835922,86.374451 146.278732,87.205666 145.348267,88.010208 
	C145.576111,87.197899 146.177216,86.412277 147.085724,85.584946 
z"/>
<path fill="#C9C9A5" opacity="1.000000" stroke="none" 
	d="
M149.109116,83.588379 
	C149.013229,84.247330 148.630798,84.936287 147.893127,85.509964 
	C147.966095,84.802574 148.394333,84.210480 149.109116,83.588379 
z"/>
<path fill="#C9C9A5" opacity="1.000000" stroke="none" 
	d="
M139.788010,93.025925 
	C139.754013,93.565979 139.424942,94.113747 138.819321,94.524200 
	C138.859497,93.935806 139.176224,93.484718 139.788010,93.025925 
z"/>
<path fill="#696956" opacity="1.000000" stroke="none" 
	d="
M173.774719,100.160698 
	C173.557526,99.630417 173.581772,99.022690 173.853485,98.208542 
	C174.072693,98.695831 174.044418,99.389542 173.774719,100.160698 
z"/>
<path fill="#C9C9A5" opacity="1.000000" stroke="none" 
	d="
M158.217148,74.457550 
	C158.105484,75.140694 157.692505,75.878136 156.909149,76.506317 
	C156.997803,75.768661 157.456818,75.140251 158.217148,74.457550 
z"/>
<path fill="#C9C9A5" opacity="1.000000" stroke="none" 
	d="
M165.088135,67.585251 
	C164.978470,68.268692 164.565796,68.992523 163.777039,69.623459 
	C163.862335,68.895584 164.323730,68.260612 165.088135,67.585251 
z"/>
<path fill="#C9C9A5" opacity="1.000000" stroke="none" 
	d="
M167.213974,65.448196 
	C167.104843,66.137459 166.692703,66.875267 165.910202,67.504471 
	C165.996887,66.762825 166.453934,66.129776 167.213974,65.448196 
z"/>
<path fill="#C9C9A5" opacity="1.000000" stroke="none" 
	d="
M156.089264,76.584900 
	C155.977890,77.265640 155.563553,77.986908 154.772736,78.617065 
	C154.859604,77.892456 155.322968,77.258949 156.089264,76.584900 
z"/>
<path fill="#C9C9A5" opacity="1.000000" stroke="none" 
	d="
M150.308960,82.469330 
	C150.433105,82.782661 150.290176,83.108116 149.856262,83.400864 
	C149.724152,83.072586 149.883026,82.777016 150.308960,82.469330 
z"/>
<path fill="#282823" opacity="1.000000" stroke="none" 
	d="
M169.011658,113.319336 
	C170.375412,112.704178 171.595993,112.394699 173.203812,112.079147 
	C171.740936,117.344879 169.890808,122.616692 167.719330,128.024704 
	C166.472397,128.001465 165.546814,127.842018 164.379807,127.141891 
	C164.722412,125.391808 165.306427,124.182404 166.182587,122.952797 
	C166.648239,122.287842 166.821747,121.643097 167.003647,120.654762 
	C167.408295,118.868904 167.804565,117.426643 168.200821,115.984375 
	C168.423386,115.197922 168.645935,114.411476 169.011658,113.319336 
z"/>
<path fill="#B5B58F" opacity="1.000000" stroke="none" 
	d="
M145.923569,156.900925 
	C149.674759,150.286087 153.425934,143.671265 157.784882,136.993561 
	C158.568939,136.961365 158.745239,136.992065 158.921524,137.022751 
	C158.691238,137.257019 158.558655,137.537476 158.267792,138.266876 
	C157.630173,139.436157 157.248505,140.202698 156.866852,140.969238 
	C155.175781,143.918823 153.484726,146.868408 151.484421,150.314545 
	C150.751373,151.533524 150.327560,152.255936 149.903748,152.978333 
	C149.903748,152.978333 149.667206,153.191467 149.361404,153.507965 
	C148.661240,154.515305 148.266891,155.206131 147.872543,155.896957 
	C147.872543,155.896957 147.967758,156.004974 147.674377,156.084961 
	C146.895172,156.410278 146.409378,156.655609 145.923569,156.900925 
z"/>
<path fill="#B5B58F" opacity="1.000000" stroke="none" 
	d="
M167.856171,116.077202 
	C167.804565,117.426643 167.408295,118.868904 166.704010,120.764542 
	C166.227493,121.802948 166.058975,122.387978 165.890472,122.973007 
	C165.306427,124.182404 164.722412,125.391808 164.096619,126.941086 
	C163.668884,127.967049 163.282898,128.653122 162.654907,129.815460 
	C162.187531,130.818832 161.962158,131.345963 161.736801,131.873077 
	C161.385864,132.533813 161.034927,133.194534 160.422760,134.261734 
	C159.635010,134.929337 159.108505,135.190460 158.582001,135.451584 
	C161.558517,129.024399 164.535019,122.597214 167.856171,116.077202 
z"/>
<path fill="#838370" opacity="1.000000" stroke="none" 
	d="
M103.804489,195.172485 
	C106.618683,194.720306 109.571945,194.592056 112.924530,194.558655 
	C110.514999,198.472061 107.317223,197.962891 103.804489,195.172485 
z"/>
<path fill="#B5B58F" opacity="1.000000" stroke="none" 
	d="
M127.339630,181.965363 
	C128.906174,179.443375 130.822296,176.899185 133.076080,174.458618 
	C131.505585,177.022552 129.597397,179.482849 127.339630,181.965363 
z"/>
<path fill="#838370" opacity="1.000000" stroke="none" 
	d="
M115.470879,193.124847 
	C116.608940,191.479950 118.087959,189.861679 119.902733,188.320007 
	C118.762939,189.981567 117.287392,191.566513 115.470879,193.124847 
z"/>
<path fill="#4E4E3D" opacity="1.000000" stroke="none" 
	d="
M140.233154,165.216019 
	C140.790237,164.606583 141.347321,163.997162 142.211060,163.331589 
	C141.622208,165.143311 140.726685,167.011185 139.388382,168.918854 
	C138.945587,168.958649 138.708069,168.755630 138.813370,168.446777 
	C139.356842,167.163971 139.794998,166.189987 140.233154,165.216019 
z"/>
<path fill="#4E4E3D" opacity="1.000000" stroke="none" 
	d="
M135.956726,172.836441 
	C135.893692,171.990417 136.202179,171.196075 136.986740,170.131836 
	C137.877914,169.493195 138.292984,169.124405 138.708069,168.755630 
	C138.708069,168.755630 138.945587,168.958649 139.065399,169.061066 
	C138.232880,170.405014 137.280563,171.646561 135.956726,172.836441 
z"/>
<path fill="#3D3D33" opacity="1.000000" stroke="none" 
	d="
M158.488556,135.722748 
	C159.108505,135.190460 159.635010,134.929337 160.434296,134.551117 
	C160.352249,135.245117 159.997437,136.056213 159.282074,136.945038 
	C158.745239,136.992065 158.568939,136.961365 158.126984,136.969147 
	C158.039276,136.669724 158.217194,136.331802 158.488556,135.722748 
z"/>
<path fill="#4E4E3D" opacity="1.000000" stroke="none" 
	d="
M145.929169,156.923630 
	C146.409378,156.655609 146.895172,156.410278 147.631638,156.029968 
	C147.441452,156.881683 147.000610,157.868393 146.217621,158.547058 
	C145.883545,157.800201 145.891602,157.361420 145.899643,156.922638 
	C145.899643,156.922638 145.934769,156.946335 145.929169,156.923630 
z"/>
<path fill="#B5B58F" opacity="1.000000" stroke="none" 
	d="
M133.869019,174.325684 
	C133.882706,173.689484 134.204590,172.998154 134.732758,172.498505 
	C134.685120,173.216965 134.431168,173.743759 133.869019,174.325684 
z"/>
<path fill="#3D3D33" opacity="1.000000" stroke="none" 
	d="
M162.043610,131.889954 
	C161.962158,131.345963 162.187531,130.818832 162.656097,130.129791 
	C162.716339,130.614197 162.533371,131.260529 162.043610,131.889954 
z"/>
<path fill="#3D3D33" opacity="1.000000" stroke="none" 
	d="
M157.239960,140.904739 
	C157.248505,140.202698 157.630173,139.436157 158.298950,138.501083 
	C158.261734,139.168442 157.937393,140.004333 157.239960,140.904739 
z"/>
<path fill="#B5B58F" opacity="1.000000" stroke="none" 
	d="
M143.449249,161.007904 
	C143.365601,160.425537 143.586197,159.827881 144.093582,159.341934 
	C144.171417,159.966629 143.962463,160.479614 143.449249,161.007904 
z"/>
<path fill="#3D3D33" opacity="1.000000" stroke="none" 
	d="
M150.260941,152.917084 
	C150.327560,152.255936 150.751373,151.533524 151.466888,150.661423 
	C151.378433,151.293106 150.998276,152.074463 150.260941,152.917084 
z"/>
<path fill="#4E4E3D" opacity="1.000000" stroke="none" 
	d="
M148.229370,155.854904 
	C148.266891,155.206131 148.661240,154.515305 149.320786,153.661896 
	C149.252716,154.270493 148.919464,155.041672 148.229370,155.854904 
z"/>
<path fill="#B5B58F" opacity="1.000000" stroke="none" 
	d="
M145.558533,156.973801 
	C145.891602,157.361420 145.883545,157.800201 145.860275,158.571274 
	C145.548309,159.063324 145.251556,159.223083 144.701904,159.370361 
	C144.705124,158.580246 144.961258,157.802612 145.558533,156.973801 
z"/>
<path fill="#B5B58F" opacity="1.000000" stroke="none" 
	d="
M138.813370,168.446777 
	C138.292984,169.124405 137.877914,169.493195 137.184296,169.871552 
	C137.782074,168.336685 138.658356,166.792236 139.883911,165.231903 
	C139.794998,166.189987 139.356842,167.163971 138.813370,168.446777 
z"/>
<path fill="#696956" opacity="1.000000" stroke="none" 
	d="
M171.087143,108.003265 
	C170.788239,108.914589 170.489349,109.825905 169.879944,110.747505 
	C169.559341,110.154716 169.549271,109.551643 169.800156,108.619659 
	C170.403122,108.194908 170.745132,108.099083 171.087143,108.003265 
z"/>
<path fill="#C9C9A5" opacity="1.000000" stroke="none" 
	d="
M171.129333,107.641396 
	C170.745132,108.099083 170.403122,108.194908 169.811218,108.391357 
	C169.854965,107.392181 170.148590,106.292389 170.827179,105.161079 
	C171.198608,105.846222 171.185059,106.562874 171.129333,107.641396 
z"/>
<path fill="#FBFBCA" opacity="1.000000" stroke="none" 
	d="
M97.800217,98.826797 
	C91.124916,105.032150 84.460953,111.223160 77.920052,117.541557 
	C71.618568,123.628677 65.444237,129.847427 58.998688,136.221313 
	C51.220757,121.365578 45.173244,106.666222 42.808552,90.806259 
	C41.737194,83.620674 42.068806,76.205658 42.099663,68.896141 
	C42.104748,67.692421 43.612694,65.806526 44.819183,65.398636 
	C66.523552,58.060837 86.127220,46.504753 105.954300,35.370083 
	C107.226616,34.655560 109.507744,34.461708 110.723526,35.122433 
	C121.170639,40.799908 131.480438,46.730057 143.189728,53.353165 
	C131.176254,64.947487 119.427528,76.220833 107.764793,87.582458 
	C104.316650,90.941582 101.111160,94.549782 97.788589,98.390854 
	C97.782700,98.737846 97.865364,98.868156 97.800217,98.826797 
z"/>
<path fill="#282823" opacity="1.000000" stroke="none" 
	d="
M175.050079,110.052628 
	C174.657349,109.772781 174.210678,109.449249 173.764008,109.125717 
	C173.871292,109.009499 173.978561,108.893280 174.085846,108.777061 
	C174.385391,109.056335 174.684952,109.335609 175.041748,109.860733 
	C175.098999,110.106590 174.996155,110.008942 175.050079,110.052628 
z"/>
<path fill="#3D3D33" opacity="1.000000" stroke="none" 
	d="
M166.182587,122.952797 
	C166.058975,122.387978 166.227493,121.802948 166.695648,121.108139 
	C166.821747,121.643097 166.648239,122.287842 166.182587,122.952797 
z"/>
</svg>